PathFileType	4	(X/Y/Z)	C:/Users/opensim2020/Desktop/walking_exp_matlab/subject06_walking17_straight_03.trc																																																																																																																																					
DataRate	CameraRate	NumFrames	NumMarkers	Units	OrigDataRate	OrigDataStartFrame	OrigNumFrames																																																																																																																																	
100	100	4	45	mm	100	3244	295																																																																																																																																	
Frame#	Time	LFHD			RFHD			LBHD			RBHD			C7			T10			CLAV			STRN			RBAK			LSHO			LUPA			LELB			LFRM			LWRA			LWRB			LFIN			RSHO			RUPA			RELB			RFRM			RWRA			RWRB			RFIN			LASI			RASI			LPSI			RPSI			LTHI			LKNE			LTIB			LANK			LHEE			LTOE			RTHI			RKNE			RTIB			RANK			RHEE			RTOE			*39			*40			*41			*42			*43			*44		
		X1	Y1	Z1	X2	Y2	Z2	X3	Y3	Z3	X4	Y4	Z4	X5	Y5	Z5	X6	Y6	Z6	X7	Y7	Z7	X8	Y8	Z8	X9	Y9	Z9	X10	Y10	Z10	X11	Y11	Z11	X12	Y12	Z12	X13	Y13	Z13	X14	Y14	Z14	X15	Y15	Z15	X16	Y16	Z16	X17	Y17	Z17	X18	Y18	Z18	X19	Y19	Z19	X20	Y20	Z20	X21	Y21	Z21	X22	Y22	Z22	X23	Y23	Z23	X24	Y24	Z24	X25	Y25	Z25	X26	Y26	Z26	X27	Y27	Z27	X28	Y28	Z28	X29	Y29	Z29	X30	Y30	Z30	X31	Y31	Z31	X32	Y32	Z32	X33	Y33	Z33	X34	Y34	Z34	X35	Y35	Z35	X36	Y36	Z36	X37	Y37	Z37	X38	Y38	Z38	X39	Y39	Z39	X40	Y40	Z40	X41	Y41	Z41	X42	Y42	Z42	X43	Y43	Z43	X44	Y44	Z44	X45	Y45	Z45
																																																																																																																																								
37	0.36	-536.51324	1660.91113	-1073.28186	-549.66144	1645.66882	-943.06702	-666.79193	1602.67993	-1089.30371	-678.47046	1592.80298	-960.64893	-671.05957	1446.74365	-1030.2677	-707.27679	1117.47156	-1021.21729	-562.88977	1366.43262	-1024.96216	-526.0752	1191.026	-1023.95886	-748.73676	1279.78418	-946.47955	-612.80402	1396.26941	-1189.47083	-648.85272	1196.97034	-1256.6416	-677.15027	1088.06384	-1266.55286	-679.49603	937.73682	-1290.72791	-633.93488	815.06342	-1253.89417	-698.39288	819.81421	-1287.37219	-670.27856	733.26141	-1290.82092	-608.05652	1403.11853	-865.35962	-635.62115	1205.98145	-771.60132	-614.53894	1086.23474	-754.27832	-572.68616	973.82043	-739.91174	-485.83194	853.10767	-782.22296	-531.69708	843.35956	-733.90625	-477.44281	779.60089	-737.02771	-510.41254	962.57837	-1113.03503	-540.75409	961.24054	-894.43823	-672.06049	986.83868	-1106.62781	-687.15656	985.70648	-939.00037	-547.87335	647.20929	-1180.23706	-530.78864	485.45132	-1154.29077	-523.27472	229.49826	-1141.73633	-492.30255	62.103	-1094.22974	-528.05658	48.81044	-1043.95667	-345.7731	37.87153	-1095.2312	-628.0791	626.58881	-851.4024	-639.74274	499.7139	-868.48474	-805.17554	284.564	-883.18927	-908.15692	131.08498	-935.99176	-951.0907	129.95573	-983.02429	-793.29608	30.29877	-941.39441	-643.6767	1694.10608	-1024.32092	NaN	NaN	NaN	NaN	NaN	NaN	NaN	NaN	NaN	NaN	NaN	NaN	NaN	NaN	NaN
38	0.37	-529.85046	1661.97559	-1074.50281	-543.16827	1646.74011	-944.32324	-660.24902	1603.73535	-1090.70386	-671.98981	1593.91101	-962.04205	-664.43848	1447.74854	-1031.72229	-700.24042	1118.59998	-1022.66058	-555.97919	1367.58862	-1026.13416	-518.95135	1192.21729	-1024.99316	-741.78827	1280.77917	-947.8598	-605.43628	1397.48486	-1190.59717	-639.57806	1197.89478	-1258.11011	-666.77826	1088.73291	-1268.05127	-668.01532	938.36047	-1292.22705	-622.38892	815.86279	-1254.36035	-686.26093	820.42578	-1289.21667	-657.73199	733.92798	-1291.97412	-601.64252	1404.47913	-866.71545	-629.81128	1207.34521	-773.20331	-609.72473	1087.375	-756.25684	-569.10986	974.49005	-741.44458	-483.14322	852.68549	-782.90015	-529.48724	843.56738	-734.92188	-476.24881	778.95313	-737.64514	-503.64563	963.52625	-1114.29565	-533.909	962.33624	-896.14771	-665.06219	987.92877	-1107.69836	-679.96722	986.755	-940.21423	-543.0401	647.92584	-1180.73926	-527.22009	485.82291	-1155.49304	-522.15472	229.69838	-1142.16467	-492.09616	61.98256	-1094.13647	-528.02313	48.94618	-1043.98792	-345.59494	37.66619	-1095.29004	-618.8916	627.4895	-850.57819	-629.00269	500.35269	-866.5788	-797.45831	288.05466	-881.80054	-902.90417	136.31635	-934.7431	-945.11694	136.72476	-982.07458	-792.28705	30.57153	-941.22021	-637.20447	1695.35803	-1025.79272	NaN	NaN	NaN	NaN	NaN	NaN	NaN	NaN	NaN	NaN	NaN	NaN	NaN	NaN	NaN
39	0.38	-523.4129	1662.82092	-1075.87024	-536.76288	1647.71045	-945.50922	-653.68573	1604.62427	-1092.1272	-665.57147	1594.90857	-963.34686	-657.64471	1448.41724	-1033.09583	-693.40094	1119.47852	-1024.14319	-549.12958	1368.60071	-1027.20801	-511.89517	1193.27197	-1026.16663	-734.94568	1281.67297	-949.24146	-598.09039	1398.67419	-1191.74121	-630.54388	1198.78955	-1259.77698	-656.62372	1089.41418	-1269.72266	-656.34369	938.9765	-1293.77161	-610.56934	816.70422	-1255.00903	-673.59656	820.80499	-1290.74451	-644.90698	734.61981	-1293.44104	-595.2428	1405.7124	-868.06488	-623.87915	1208.63123	-774.81537	-604.92493	1088.47424	-758.12903	-565.5672	975.09387	-742.91663	-480.39011	852.42419	-783.41473	-527.51825	843.64825	-736.10016	-475.01392	778.30664	-738.40637	-496.87048	964.30884	-1115.62988	-526.37518	963.54761	-896.9884	-658.1922	988.81989	-1108.7937	-673.00537	987.70184	-941.40295	-538.09698	648.51331	-1181.41711	-524.00354	486.077	-1156.87476	-520.5788	229.87019	-1142.58154	-491.84738	61.93896	-1094.02686	-527.86377	49.00493	-1044.15747	-345.34583	37.37346	-1095.17371	-609.38068	628.42981	-849.66492	-617.94995	501.12878	-864.51538	-789.09314	291.56909	-880.32373	-897.14044	141.68759	-933.37476	-938.86896	143.88612	-980.79083	-791.40369	30.94727	-940.95264	-630.49152	1696.24548	-1026.99036	NaN	NaN	NaN	NaN	NaN	NaN	NaN	NaN	NaN	NaN	NaN	NaN	NaN	NaN	NaN
40	0.39	-517.0097	1663.4989	-1077.19629	-530.27649	1648.56836	-946.83893	-647.14117	1605.43359	-1093.44946	-659.08087	1595.75037	-964.72839	-650.97418	1449.12573	-1034.46155	-686.53375	1120.38123	-1025.67163	-542.32245	1369.47827	-1028.36963	-504.99725	1194.10596	-1027.42456	-728.146	1282.43884	-950.68921	-590.84009	1399.78772	-1192.90393	-621.38184	1199.53894	-1261.23523	-646.32855	1089.89868	-1271.479	-644.44763	939.47046	-1295.34546	-598.66119	817.54633	-1255.86719	-660.97034	821.3985	-1292.70532	-631.1488	735.13202	-1294.52112	-588.82172	1406.75	-869.43994	-618.25684	1209.80933	-776.15234	-600.19647	1089.41296	-759.91272	-562.00256	975.59015	-744.35107	-477.74802	851.88007	-784.18616	-525.47198	843.57709	-737.45221	-473.79138	777.54865	-739.28088	-490.33646	964.89294	-1116.88965	-519.7876	964.50403	-898.60553	-651.45251	989.59674	-1109.90503	-666.20349	988.57709	-942.61096	-533.38715	648.92267	-1182.07605	-520.54407	486.24792	-1157.83777	-518.72333	230.00871	-1142.89758	-491.28061	62.19913	-1094.18201	-527.41168	48.93919	-1044.78699	-345.04202	37.16553	-1095.04199	-599.6687	629.26208	-848.77386	-606.51605	501.7308	-862.4538	-780.0304	295.0994	-878.81799	-890.82996	147.16891	-931.87433	-931.83795	150.98616	-979.56708	-789.84753	31.83848	-940.30084	-624.04987	1696.99829	-1028.35645	NaN	NaN	NaN	NaN	NaN	NaN	NaN	NaN	NaN	NaN	NaN	NaN	NaN	NaN	NaN
